<mxfile host="app.diagrams.net" modified="2022-11-04T16:50:01.115Z" agent="5.0 (X11)" etag="ONJ0BL-o04VJWeNfkjnQ" version="20.2.6" type="github">
  <diagram name="Page-1" id="10a91c8b-09ff-31b1-d368-03940ed4cc9e">
    <mxGraphModel dx="1422" dy="761" grid="1" gridSize="10" guides="1" tooltips="1" connect="1" arrows="1" fold="1" page="1" pageScale="1" pageWidth="1100" pageHeight="850" background="none" math="0" shadow="0">
      <root>
        <mxCell id="0" />
        <mxCell id="1" parent="0" />
        <mxCell id="q3-LoGvM8khBbAgoycWg-7" value="Objection" style="edgeStyle=none;rounded=0;orthogonalLoop=1;jettySize=auto;html=1;labelBackgroundColor=default;fontFamily=Verdana;fontSize=12;endArrow=none;endFill=0;fillColor=#f8cecc;strokeColor=#b85450;" edge="1" parent="1" source="62893188c0fa7362-1" target="q3-LoGvM8khBbAgoycWg-6">
          <mxGeometry relative="1" as="geometry" />
        </mxCell>
        <mxCell id="q3-LoGvM8khBbAgoycWg-14" value="Reason" style="edgeStyle=none;rounded=0;orthogonalLoop=1;jettySize=auto;html=1;labelBackgroundColor=default;fontFamily=Verdana;fontSize=12;endArrow=none;endFill=0;fillColor=#d5e8d4;strokeColor=#82b366;" edge="1" parent="1" source="62893188c0fa7362-1" target="q3-LoGvM8khBbAgoycWg-13">
          <mxGeometry relative="1" as="geometry" />
        </mxCell>
        <mxCell id="62893188c0fa7362-1" value="Use global survey object" style="whiteSpace=wrap;html=1;rounded=1;shadow=1;labelBackgroundColor=none;strokeWidth=1;fontFamily=Verdana;fontSize=12;align=center;" parent="1" vertex="1">
          <mxGeometry x="610" y="50" width="120" height="60" as="geometry" />
        </mxCell>
        <mxCell id="ilNP-EHQufTqVbx1UCEy-7" value="Objection" style="orthogonalLoop=1;jettySize=auto;html=1;shadow=0;exitX=1;exitY=1;exitDx=0;exitDy=0;endArrow=none;endFill=0;rounded=0;fillColor=#f8cecc;strokeColor=#b85450;fontFamily=Verdana;fontSize=12;" parent="1" source="62893188c0fa7362-1" target="ilNP-EHQufTqVbx1UCEy-6" edge="1">
          <mxGeometry x="-0.008" y="1" relative="1" as="geometry">
            <mxPoint as="offset" />
          </mxGeometry>
        </mxCell>
        <mxCell id="62893188c0fa7362-2" value="Enables co-op edit" style="whiteSpace=wrap;html=1;rounded=1;shadow=1;labelBackgroundColor=none;strokeWidth=1;fontFamily=Verdana;fontSize=12;align=center;" parent="1" vertex="1">
          <mxGeometry x="470" y="170" width="120" height="60" as="geometry" />
        </mxCell>
        <mxCell id="q3-LoGvM8khBbAgoycWg-10" value="Reason" style="edgeStyle=none;rounded=0;orthogonalLoop=1;jettySize=auto;html=1;labelBackgroundColor=default;fontFamily=Verdana;fontSize=12;endArrow=none;endFill=0;fillColor=#d5e8d4;strokeColor=#82b366;" edge="1" parent="1" source="62893188c0fa7362-3" target="q3-LoGvM8khBbAgoycWg-9">
          <mxGeometry relative="1" as="geometry" />
        </mxCell>
        <mxCell id="q3-LoGvM8khBbAgoycWg-16" value="Objection" style="edgeStyle=none;rounded=0;orthogonalLoop=1;jettySize=auto;html=1;labelBackgroundColor=default;fontFamily=Verdana;fontSize=12;endArrow=none;endFill=0;fillColor=#f8cecc;strokeColor=#b85450;" edge="1" parent="1" source="62893188c0fa7362-3" target="q3-LoGvM8khBbAgoycWg-15">
          <mxGeometry relative="1" as="geometry" />
        </mxCell>
        <mxCell id="62893188c0fa7362-3" value="Better if each component has its own persistence?" style="whiteSpace=wrap;html=1;rounded=1;shadow=1;labelBackgroundColor=none;strokeWidth=1;fontFamily=Verdana;fontSize=12;align=center;" parent="1" vertex="1">
          <mxGeometry x="730" y="170" width="120" height="60" as="geometry" />
        </mxCell>
        <mxCell id="62893188c0fa7362-4" value="Objection" style="rounded=0;html=1;labelBackgroundColor=default;startArrow=none;startFill=0;startSize=5;endArrow=none;endFill=0;endSize=5;jettySize=auto;orthogonalLoop=1;strokeWidth=1;fontFamily=Verdana;fontSize=12;fillColor=#f8cecc;strokeColor=#b85450;fontColor=default;" parent="1" source="62893188c0fa7362-1" target="62893188c0fa7362-3" edge="1">
          <mxGeometry x="-0.1667" y="-7" relative="1" as="geometry">
            <mxPoint as="offset" />
          </mxGeometry>
        </mxCell>
        <mxCell id="62893188c0fa7362-5" value="&lt;div&gt;Reason&lt;/div&gt;" style="rounded=0;html=1;labelBackgroundColor=default;startArrow=none;startFill=0;startSize=5;endArrow=none;endFill=0;endSize=5;jettySize=auto;orthogonalLoop=1;strokeWidth=1;fontFamily=Verdana;fontSize=12;exitX=0;exitY=1;exitDx=0;exitDy=0;fillColor=#d5e8d4;strokeColor=#82b366;" parent="1" source="62893188c0fa7362-1" target="62893188c0fa7362-2" edge="1">
          <mxGeometry x="0.0552" y="-2" relative="1" as="geometry">
            <mxPoint x="-1" as="offset" />
          </mxGeometry>
        </mxCell>
        <mxCell id="q3-LoGvM8khBbAgoycWg-5" value="&lt;div style=&quot;font-size: 12px;&quot;&gt;Objection&lt;/div&gt;" style="rounded=0;orthogonalLoop=1;jettySize=auto;html=1;endArrow=none;endFill=0;fillColor=#f8cecc;strokeColor=#b85450;fontFamily=Verdana;fontSize=12;" edge="1" parent="1" source="ilNP-EHQufTqVbx1UCEy-6" target="q3-LoGvM8khBbAgoycWg-4">
          <mxGeometry relative="1" as="geometry" />
        </mxCell>
        <mxCell id="ilNP-EHQufTqVbx1UCEy-6" value="Pagination easier without" style="whiteSpace=wrap;html=1;rounded=1;shadow=1;labelBackgroundColor=none;strokeWidth=1;fontFamily=Verdana;fontSize=12;align=center;" parent="1" vertex="1">
          <mxGeometry x="870" y="170" width="120" height="60" as="geometry" />
        </mxCell>
        <mxCell id="q3-LoGvM8khBbAgoycWg-4" value="Won&#39;t need pagination, since 3000 question is only 500 kb" style="whiteSpace=wrap;html=1;rounded=1;shadow=1;labelBackgroundColor=none;strokeWidth=1;fontFamily=Verdana;fontSize=12;align=center;" vertex="1" parent="1">
          <mxGeometry x="870" y="290" width="120" height="60" as="geometry" />
        </mxCell>
        <mxCell id="q3-LoGvM8khBbAgoycWg-12" value="Objection" style="edgeStyle=none;rounded=0;orthogonalLoop=1;jettySize=auto;html=1;labelBackgroundColor=default;fontFamily=Verdana;fontSize=12;endArrow=none;endFill=0;fillColor=#f8cecc;strokeColor=#b85450;" edge="1" parent="1" source="q3-LoGvM8khBbAgoycWg-6" target="q3-LoGvM8khBbAgoycWg-11">
          <mxGeometry relative="1" as="geometry" />
        </mxCell>
        <mxCell id="q3-LoGvM8khBbAgoycWg-6" value="Must calculate a change set?" style="whiteSpace=wrap;html=1;rounded=1;shadow=1;labelBackgroundColor=none;strokeWidth=1;fontFamily=Verdana;fontSize=12;align=center;" vertex="1" parent="1">
          <mxGeometry x="1030" y="170" width="120" height="60" as="geometry" />
        </mxCell>
        <mxCell id="q3-LoGvM8khBbAgoycWg-8" value="Instead of each component having its own persistence" style="text;html=1;strokeColor=none;fillColor=none;align=center;verticalAlign=middle;whiteSpace=wrap;rounded=0;fontFamily=Verdana;fontSize=12;" vertex="1" parent="1">
          <mxGeometry x="690" y="20" width="270" height="30" as="geometry" />
        </mxCell>
        <mxCell id="q3-LoGvM8khBbAgoycWg-9" value="No need to calculate a change set" style="whiteSpace=wrap;html=1;rounded=1;shadow=1;labelBackgroundColor=none;strokeWidth=1;fontFamily=Verdana;fontSize=12;align=center;" vertex="1" parent="1">
          <mxGeometry x="560" y="290" width="120" height="60" as="geometry" />
        </mxCell>
        <mxCell id="q3-LoGvM8khBbAgoycWg-22" value="Objection" style="edgeStyle=none;rounded=0;orthogonalLoop=1;jettySize=auto;html=1;labelBackgroundColor=default;fontFamily=Verdana;fontSize=12;endArrow=none;endFill=0;fillColor=#f8cecc;strokeColor=#b85450;" edge="1" parent="1" source="q3-LoGvM8khBbAgoycWg-11" target="q3-LoGvM8khBbAgoycWg-21">
          <mxGeometry relative="1" as="geometry" />
        </mxCell>
        <mxCell id="q3-LoGvM8khBbAgoycWg-11" value="No, it&#39;s enough to keep a list of diffs" style="whiteSpace=wrap;html=1;rounded=1;shadow=1;labelBackgroundColor=none;strokeWidth=1;fontFamily=Verdana;fontSize=12;align=center;" vertex="1" parent="1">
          <mxGeometry x="1200" y="290" width="120" height="60" as="geometry" />
        </mxCell>
        <mxCell id="q3-LoGvM8khBbAgoycWg-13" value="Debugging is easier (can dump survey state at any time)" style="whiteSpace=wrap;html=1;rounded=1;shadow=1;labelBackgroundColor=none;strokeWidth=1;fontFamily=Verdana;fontSize=12;align=center;" vertex="1" parent="1">
          <mxGeometry x="310" y="170" width="120" height="60" as="geometry" />
        </mxCell>
        <mxCell id="q3-LoGvM8khBbAgoycWg-18" value="Objection" style="edgeStyle=none;rounded=0;orthogonalLoop=1;jettySize=auto;html=1;labelBackgroundColor=default;fontFamily=Verdana;fontSize=12;endArrow=none;endFill=0;fillColor=#f8cecc;strokeColor=#b85450;" edge="1" parent="1" source="q3-LoGvM8khBbAgoycWg-15" target="q3-LoGvM8khBbAgoycWg-17">
          <mxGeometry relative="1" as="geometry" />
        </mxCell>
        <mxCell id="q3-LoGvM8khBbAgoycWg-15" value="Can&#39;t buffer the saves?" style="whiteSpace=wrap;html=1;rounded=1;shadow=1;labelBackgroundColor=none;strokeWidth=1;fontFamily=Verdana;fontSize=12;align=center;" vertex="1" parent="1">
          <mxGeometry x="730" y="290" width="120" height="60" as="geometry" />
        </mxCell>
        <mxCell id="q3-LoGvM8khBbAgoycWg-20" value="Objection" style="edgeStyle=none;rounded=0;orthogonalLoop=1;jettySize=auto;html=1;labelBackgroundColor=default;fontFamily=Verdana;fontSize=12;endArrow=none;endFill=0;fillColor=#f8cecc;strokeColor=#b85450;" edge="1" parent="1" source="q3-LoGvM8khBbAgoycWg-17" target="q3-LoGvM8khBbAgoycWg-19">
          <mxGeometry relative="1" as="geometry" />
        </mxCell>
        <mxCell id="q3-LoGvM8khBbAgoycWg-17" value="Buffering works fine if you save each change in a list of diffs" style="whiteSpace=wrap;html=1;rounded=1;shadow=1;labelBackgroundColor=none;strokeWidth=1;fontFamily=Verdana;fontSize=12;align=center;" vertex="1" parent="1">
          <mxGeometry x="830" y="430" width="120" height="60" as="geometry" />
        </mxCell>
        <mxCell id="q3-LoGvM8khBbAgoycWg-19" value="But no automatic revert on failure?" style="whiteSpace=wrap;html=1;rounded=1;shadow=1;labelBackgroundColor=none;strokeWidth=1;fontFamily=Verdana;fontSize=12;align=center;" vertex="1" parent="1">
          <mxGeometry x="960" y="550" width="120" height="60" as="geometry" />
        </mxCell>
        <mxCell id="q3-LoGvM8khBbAgoycWg-21" value="Can a diff list be persisted with react-query?" style="whiteSpace=wrap;html=1;rounded=1;shadow=1;labelBackgroundColor=none;strokeWidth=1;fontFamily=Verdana;fontSize=12;align=center;" vertex="1" parent="1">
          <mxGeometry x="1390" y="430" width="120" height="60" as="geometry" />
        </mxCell>
      </root>
    </mxGraphModel>
  </diagram>
</mxfile>
